<svg width="14" height="12" viewBox="0 0 14 12" fill="none" xmlns="http://www.w3.org/2000/svg">
<path d="M14 5.99999C13.9951 5.47389 13.7832 4.97089 13.41 4.59999L9.12 0.299999C8.93264 0.113749 8.67919 0.00920677 8.415 0.00920677C8.15081 0.00920677 7.89736 0.113749 7.71 0.299999C7.61627 0.392962 7.54188 0.503563 7.49111 0.625422C7.44034 0.747281 7.4142 0.877987 7.4142 1.01C7.4142 1.14201 7.44034 1.27272 7.49111 1.39457C7.54188 1.51643 7.61627 1.62703 7.71 1.72L11 4.99999H1C0.734784 4.99999 0.48043 5.10535 0.292893 5.29289C0.105357 5.48042 0 5.73478 0 5.99999C0 6.26521 0.105357 6.51956 0.292893 6.7071C0.48043 6.89463 0.734784 6.99999 1 6.99999H11L7.71 10.29C7.5217 10.477 7.41538 10.7311 7.41444 10.9965C7.41351 11.2618 7.51802 11.5167 7.705 11.705C7.89198 11.8933 8.1461 11.9996 8.41146 12.0005C8.67683 12.0015 8.9317 11.897 9.12 11.71L13.41 7.40999C13.7856 7.03664 13.9978 6.52957 14 5.99999Z" fill="#E47A7C"/>
</svg>
