<svg width="20" height="16" viewBox="0 0 20 16" fill="none" xmlns="http://www.w3.org/2000/svg">
<path fill-rule="evenodd" clip-rule="evenodd" d="M0.803786 4.35317C0.523642 6.95607 0.53613 9.95806 0.925953 12.5504C1.14165 13.9848 2.31232 15.0844 3.75739 15.21L5.26762 15.3413C8.41667 15.6151 11.5835 15.6151 14.7326 15.3413L16.2428 15.21C17.6879 15.0844 18.8585 13.9848 19.0742 12.5504C19.4641 9.95805 19.4766 6.95624 19.1964 4.35333C19.1602 4.05157 19.1195 3.75021 19.0742 3.44937C18.8585 2.01497 17.6879 0.915329 16.2428 0.789712L14.7326 0.65843C11.5835 0.38469 8.41667 0.38469 5.26762 0.658431L3.75739 0.789712C2.31232 0.915329 1.14165 2.01497 0.925953 3.44936C0.880721 3.75016 0.839998 4.05147 0.803786 4.35317ZM5.39752 2.1528C8.46013 1.88657 11.5401 1.88657 14.6027 2.15279L16.1129 2.28408C16.8672 2.34965 17.4783 2.92367 17.5909 3.67242C17.6026 3.75018 17.614 3.82797 17.6251 3.9058L12.064 6.99525C10.7805 7.70835 9.21968 7.70835 7.93608 6.99524L2.37514 3.90583C2.3862 3.828 2.39758 3.75019 2.40928 3.67242C2.52187 2.92367 3.13296 2.34965 3.88729 2.28408L5.39752 2.1528ZM17.8086 5.51976C18.0026 7.78752 17.93 10.0724 17.5909 12.3273C17.4783 13.0761 16.8672 13.6501 16.1129 13.7157L14.6027 13.847C11.5401 14.1132 8.46013 14.1132 5.39753 13.847L3.88729 13.7157C3.13296 13.6501 2.52187 13.0761 2.40928 12.3273C2.07019 10.0724 1.99763 7.78754 2.19159 5.5198L7.20762 8.30648C8.94425 9.27127 11.0559 9.27128 12.7925 8.30648L17.8086 5.51976Z" fill="white" fill-opacity="0.7"/>
</svg>
