<svg width="24" height="24" fill="none" xmlns="http://www.w3.org/2000/svg">
<path d="M18 12.0001C17.9951 11.474 17.7832 10.971 17.41 10.6001L13.12 6.30007C12.9326 6.11382 12.6792 6.00928 12.415 6.00928C12.1508 6.00928 11.8974 6.11382 11.71 6.30007C11.6163 6.39303 11.5419 6.50363 11.4911 6.62549C11.4403 6.74735 11.4142 6.87806 11.4142 7.01007C11.4142 7.14208 11.4403 7.27279 11.4911 7.39465C11.5419 7.5165 11.6163 7.62711 11.71 7.72007L15 11.0001H5C4.73478 11.0001 4.48043 11.1054 4.29289 11.293C4.10536 11.4805 4 11.7348 4 12.0001C4 12.2653 4.10536 12.5196 4.29289 12.7072C4.48043 12.8947 4.73478 13.0001 5 13.0001H15L11.71 16.2901C11.5217 16.477 11.4154 16.7312 11.4144 16.9965C11.4135 17.2619 11.518 17.5168 11.705 17.7051C11.892 17.8934 12.1461 17.9997 12.4115 18.0006C12.6768 18.0016 12.9317 17.897 13.12 17.7101L17.41 13.4101C17.7856 13.0367 17.9978 12.5296 18 12.0001Z" fill="#1A2751"/>
</svg>
