<svg width="70" height="70" viewBox="0 0 70 70" fill="none" xmlns="http://www.w3.org/2000/svg">
<g clip-path="url(#clip0_26_2817)">
<path d="M52.4997 26.436C52.5001 25.2628 52.2684 24.1011 51.8179 23.0178C51.3674 21.9346 50.707 20.9512 49.8747 20.1243C48.1717 18.4993 45.9082 17.5926 43.5543 17.5926C41.2004 17.5926 38.9369 18.4993 37.2339 20.1243L2.62471 54.7422C1.0451 56.436 0.184748 58.6768 0.224983 60.9925C0.265218 63.3082 1.2029 65.5179 2.84039 67.1557C4.47789 68.7936 6.68731 69.7318 9.00299 69.7726C11.3187 69.8133 13.5597 68.9535 15.2539 67.3743L49.8747 32.7564C50.7083 31.9286 51.3694 30.9439 51.82 29.859C52.2706 28.7741 52.5016 27.6107 52.4997 26.436ZM11.1297 63.2559C10.5401 63.818 9.75678 64.1315 8.94221 64.1315C8.12764 64.1315 7.34432 63.818 6.75471 63.2559C6.1755 62.6753 5.85023 61.8886 5.85023 61.0684C5.85023 60.2483 6.1755 59.4616 6.75471 58.8809L29.4143 36.2185L33.8039 40.608L11.1297 63.2559ZM45.7564 28.6293L37.9164 36.4722L33.5414 32.0826L41.3843 24.2426C41.6639 23.9232 42.0061 23.6647 42.3897 23.4829C42.7732 23.3012 43.1901 23.2001 43.6143 23.186C44.0386 23.1719 44.4612 23.2451 44.856 23.401C45.2508 23.5569 45.6094 23.7923 45.9095 24.0924C46.2096 24.3926 46.445 24.7511 46.6009 25.1459C46.7568 25.5407 46.83 25.9634 46.8159 26.3876C46.8018 26.8118 46.7008 27.2287 46.519 27.6123C46.3373 27.9958 46.0787 28.338 45.7593 28.6176L45.7564 28.6293ZM14.1835 8.32637L18.7043 7.0372L19.9935 2.51637C20.2011 1.79095 20.6394 1.15288 21.2419 0.698646C21.8444 0.244412 22.5785 -0.00128174 23.333 -0.00128174C24.0876 -0.00128174 24.8217 0.244412 25.4242 0.698646C26.0267 1.15288 26.4649 1.79095 26.6726 2.51637L27.9618 7.0372L32.4826 8.32637C33.208 8.53405 33.8461 8.97229 34.3003 9.57482C34.7546 10.1773 35.0003 10.9114 35.0003 11.666C35.0003 12.4205 34.7546 13.1546 34.3003 13.7571C33.8461 14.3596 33.208 14.7979 32.4826 15.0055L27.9618 16.2947L26.6726 20.8155C26.4649 21.541 26.0267 22.179 25.4242 22.6333C24.8217 23.0875 24.0876 23.3332 23.333 23.3332C22.5785 23.3332 21.8444 23.0875 21.2419 22.6333C20.6394 22.179 20.2011 21.541 19.9935 20.8155L18.7043 16.2947L14.1835 15.0055C13.458 14.7979 12.82 14.3596 12.3657 13.7571C11.9115 13.1546 11.6658 12.4205 11.6658 11.666C11.6658 10.9114 11.9115 10.1773 12.3657 9.57482C12.82 8.97229 13.458 8.53405 14.1835 8.32637ZM67.4826 50.0055L62.9618 51.2947L61.6726 55.8155C61.4649 56.541 61.0267 57.179 60.4242 57.6333C59.8217 58.0875 59.0876 58.3332 58.333 58.3332C57.5785 58.3332 56.8444 58.0875 56.2419 57.6333C55.6394 57.179 55.2011 56.541 54.9935 55.8155L53.7043 51.2947L49.1835 50.0055C48.458 49.7979 47.82 49.3596 47.3657 48.7571C46.9115 48.1546 46.6658 47.4205 46.6658 46.666C46.6658 45.9114 46.9115 45.1773 47.3657 44.5748C47.82 43.9723 48.458 43.534 49.1835 43.3264L53.7043 42.0372L54.9935 37.5164C55.2011 36.791 55.6394 36.1529 56.2419 35.6986C56.8444 35.2444 57.5785 34.9987 58.333 34.9987C59.0876 34.9987 59.8217 35.2444 60.4242 35.6986C61.0267 36.1529 61.4649 36.791 61.6726 37.5164L62.9618 42.0372L67.4826 43.3264C68.208 43.534 68.8461 43.9723 69.3003 44.5748C69.7546 45.1773 70.0003 45.9114 70.0003 46.666C70.0003 47.4205 69.7546 48.1546 69.3003 48.7571C68.8461 49.3596 68.208 49.7979 67.4826 50.0055ZM51.7851 7.29095L55.7401 6.1622L56.8747 2.20137C57.0594 1.57084 57.4434 1.01712 57.9692 0.6232C58.495 0.229278 59.1344 0.0163644 59.7914 0.0163644C60.4484 0.0163644 61.0877 0.229278 61.6135 0.6232C62.1394 1.01712 62.5234 1.57084 62.708 2.20137L63.8368 6.15637L67.7918 7.28512C68.4223 7.46978 68.976 7.85379 69.37 8.37962C69.7639 8.90545 69.9768 9.54477 69.9768 10.2018C69.9768 10.8588 69.7639 11.4981 69.37 12.024C68.976 12.5498 68.4223 12.9338 67.7918 13.1185L63.8368 14.2472L62.708 18.211C62.5234 18.8415 62.1394 19.3952 61.6135 19.7891C61.0877 20.183 60.4484 20.396 59.7914 20.396C59.1344 20.396 58.495 20.183 57.9692 19.7891C57.4434 19.3952 57.0594 18.8415 56.8747 18.211L55.746 14.2589L51.7851 13.1243C51.1546 12.9396 50.6009 12.5556 50.207 12.0298C49.813 11.504 49.6001 10.8646 49.6001 10.2076C49.6001 9.5506 49.813 8.91128 50.207 8.38545C50.6009 7.85962 51.1546 7.47561 51.7851 7.29095Z" fill="#1A2751"/>
</g>
<defs>
<clipPath id="clip0_26_2817">
<rect width="70" height="70" fill="white"/>
</clipPath>
</defs>
</svg>
