<svg width="71" height="70" viewBox="0 0 71 70" fill="none" xmlns="http://www.w3.org/2000/svg">
<g clip-path="url(#clip0_26_2827)">
<path d="M26.75 34.9998C30.2112 34.9998 33.5946 33.9735 36.4725 32.0505C39.3503 30.1276 41.5934 27.3945 42.9179 24.1968C44.2424 20.9991 44.589 17.4804 43.9137 14.0857C43.2385 10.6911 41.5718 7.57287 39.1244 5.12546C36.677 2.67804 33.5587 1.01132 30.1641 0.336082C26.7694 -0.339159 23.2507 0.0073994 20.053 1.33193C16.8553 2.65647 14.1222 4.89948 12.1993 7.77734C10.2764 10.6552 9.25 14.0387 9.25 17.4998C9.25463 22.1397 11.0999 26.5882 14.3807 29.8691C17.6616 33.15 22.1101 34.9952 26.75 34.9998ZM26.75 5.83316C29.0574 5.83316 31.3131 6.5174 33.2317 7.79935C35.1502 9.0813 36.6456 10.9034 37.5286 13.0352C38.4116 15.167 38.6427 17.5128 38.1925 19.7759C37.7423 22.039 36.6312 24.1178 34.9996 25.7494C33.368 27.381 31.2892 28.4922 29.0261 28.9423C26.7629 29.3925 24.4172 29.1614 22.2854 28.2784C20.1536 27.3954 18.3315 25.9 17.0495 23.9815C15.7676 22.0629 15.0833 19.8073 15.0833 17.4998C15.0833 14.4056 16.3125 11.4382 18.5004 9.25025C20.6883 7.06232 23.6558 5.83316 26.75 5.83316Z" fill="#1A2751"/>
<path d="M26.75 40.8324C19.7907 40.8409 13.1188 43.6092 8.19782 48.5302C3.27683 53.4512 0.50849 60.123 0.5 67.0823C0.5 67.8559 0.807291 68.5977 1.35427 69.1447C1.90125 69.6917 2.64312 69.999 3.41667 69.999C4.19021 69.999 4.93208 69.6917 5.47906 69.1447C6.02604 68.5977 6.33333 67.8559 6.33333 67.0823C6.33333 61.6675 8.48437 56.4745 12.3132 52.6456C16.1421 48.8167 21.3352 46.6657 26.75 46.6657C32.1648 46.6657 37.3579 48.8167 41.1868 52.6456C45.0156 56.4745 47.1667 61.6675 47.1667 67.0823C47.1667 67.8559 47.474 68.5977 48.0209 69.1447C48.5679 69.6917 49.3098 69.999 50.0833 69.999C50.8569 69.999 51.5988 69.6917 52.1457 69.1447C52.6927 68.5977 53 67.8559 53 67.0823C52.9915 60.123 50.2232 53.4512 45.3022 48.5302C40.3812 43.6092 33.7093 40.8409 26.75 40.8324Z" fill="#1A2751"/>
<path d="M64.6662 22.9688C63.043 23.0496 61.5179 23.7701 60.4247 24.9727C59.3315 26.1753 58.7591 27.7619 58.8329 29.3854C58.9066 27.7619 58.3343 26.1753 57.241 24.9727C56.1478 23.7701 54.6227 23.0496 52.9996 22.9688C51.3764 23.0496 49.8513 23.7701 48.7581 24.9727C47.6649 26.1753 47.0925 27.7619 47.1662 29.3854C47.1662 34.4312 53.7462 40.3433 57.0245 42.9742C57.5377 43.385 58.1755 43.6089 58.8329 43.6089C59.4903 43.6089 60.128 43.385 60.6412 42.9742C63.9195 40.3492 70.4995 34.4312 70.4995 29.3854C70.5732 27.7619 70.0009 26.1753 68.9077 24.9727C67.8144 23.7701 66.2894 23.0496 64.6662 22.9688Z" fill="#1A2751"/>
</g>
<defs>
<clipPath id="clip0_26_2827">
<rect width="70" height="70" fill="white" transform="translate(0.5)"/>
</clipPath>
</defs>
</svg>
