<svg width="70" height="70" viewBox="0 0 70 70" fill="none" xmlns="http://www.w3.org/2000/svg">
<g clip-path="url(#clip0_26_2822)">
<path d="M14.5829 40.8334C16.1937 40.8334 17.4996 39.5275 17.4996 37.9167C17.4996 36.3058 16.1937 35 14.5829 35C12.9721 35 11.6663 36.3058 11.6663 37.9167C11.6663 39.5275 12.9721 40.8334 14.5829 40.8334Z" fill="#1A2751"/>
<path d="M2.91667 29.1671C4.5275 29.1671 5.83333 27.8612 5.83333 26.2504C5.83333 24.6396 4.5275 23.3337 2.91667 23.3337C1.30584 23.3337 0 24.6396 0 26.2504C0 27.8612 1.30584 29.1671 2.91667 29.1671Z" fill="#1A2751"/>
<path d="M14.5829 17.4995C16.1937 17.4995 17.4996 16.1937 17.4996 14.5829C17.4996 12.972 16.1937 11.6662 14.5829 11.6662C12.9721 11.6662 11.6663 12.972 11.6663 14.5829C11.6663 16.1937 12.9721 17.4995 14.5829 17.4995Z" fill="#1A2751"/>
<path d="M2.91667 5.83333C4.5275 5.83333 5.83333 4.5275 5.83333 2.91667C5.83333 1.30584 4.5275 0 2.91667 0C1.30584 0 0 1.30584 0 2.91667C0 4.5275 1.30584 5.83333 2.91667 5.83333Z" fill="#1A2751"/>
<path d="M67.0829 40.8334C68.6937 40.8334 69.9995 39.5275 69.9995 37.9167C69.9995 36.3058 68.6937 35 67.0829 35C65.4721 35 64.1663 36.3058 64.1663 37.9167C64.1663 39.5275 65.4721 40.8334 67.0829 40.8334Z" fill="#1A2751"/>
<path d="M55.4167 29.1671C57.0275 29.1671 58.3334 27.8612 58.3334 26.2504C58.3334 24.6396 57.0275 23.3337 55.4167 23.3337C53.8058 23.3337 52.5 24.6396 52.5 26.2504C52.5 27.8612 53.8058 29.1671 55.4167 29.1671Z" fill="#1A2751"/>
<path d="M67.0829 17.4995C68.6937 17.4995 69.9995 16.1937 69.9995 14.5829C69.9995 12.972 68.6937 11.6662 67.0829 11.6662C65.4721 11.6662 64.1663 12.972 64.1663 14.5829C64.1663 16.1937 65.4721 17.4995 67.0829 17.4995Z" fill="#1A2751"/>
<path d="M55.4167 5.83333C57.0275 5.83333 58.3334 4.5275 58.3334 2.91667C58.3334 1.30584 57.0275 0 55.4167 0C53.8058 0 52.5 1.30584 52.5 2.91667C52.5 4.5275 53.8058 5.83333 55.4167 5.83333Z" fill="#1A2751"/>
<path d="M40.8329 69.9995C42.4438 69.9995 43.7496 68.6937 43.7496 67.0829C43.7496 65.4721 42.4438 64.1663 40.8329 64.1663C39.2221 64.1663 37.9163 65.4721 37.9163 67.0829C37.9163 68.6937 39.2221 69.9995 40.8329 69.9995Z" fill="#1A2751"/>
<path d="M29.1667 58.3334C30.7775 58.3334 32.0833 57.0275 32.0833 55.4167C32.0833 53.8058 30.7775 52.5 29.1667 52.5C27.5558 52.5 26.25 53.8058 26.25 55.4167C26.25 57.0275 27.5558 58.3334 29.1667 58.3334Z" fill="#1A2751"/>
<path d="M40.8329 46.6671C42.4438 46.6671 43.7496 45.3613 43.7496 43.7504C43.7496 42.1396 42.4438 40.8337 40.8329 40.8337C39.2221 40.8337 37.9163 42.1396 37.9163 43.7504C37.9163 45.3613 39.2221 46.6671 40.8329 46.6671Z" fill="#1A2751"/>
<path d="M29.1667 34.9996C30.7775 34.9996 32.0833 33.6937 32.0833 32.0829C32.0833 30.472 30.7775 29.1662 29.1667 29.1662C27.5558 29.1662 26.25 30.472 26.25 32.0829C26.25 33.6937 27.5558 34.9996 29.1667 34.9996Z" fill="#1A2751"/>
<path d="M43.7504 8.75C42.2033 8.75 40.7195 8.13542 39.6256 7.04146C38.5316 5.94749 37.917 4.46376 37.917 2.91667C37.917 2.14312 37.6098 1.40125 37.0628 0.854272C36.5158 0.307291 35.7739 0 35.0004 0C34.2268 0 33.485 0.307291 32.938 0.854272C32.391 1.40125 32.0837 2.14312 32.0837 2.91667C32.0837 4.46376 31.4691 5.94749 30.3752 7.04146C29.2812 8.13542 27.7975 8.75 26.2504 8.75C25.4769 8.75 24.735 9.05729 24.188 9.60427C23.641 10.1513 23.3337 10.8931 23.3337 11.6667C23.3337 12.4402 23.641 13.1821 24.188 13.7291C24.735 14.276 25.4769 14.5833 26.2504 14.5833C27.7975 14.5833 29.2812 15.1979 30.3752 16.2919C31.4691 17.3858 32.0837 18.8696 32.0837 20.4167C32.0837 21.1902 32.391 21.9321 32.938 22.4791C33.485 23.026 34.2268 23.3333 35.0004 23.3333C35.7739 23.3333 36.5158 23.026 37.0628 22.4791C37.6098 21.9321 37.917 21.1902 37.917 20.4167C37.917 18.8696 38.5316 17.3858 39.6256 16.2919C40.7195 15.1979 42.2033 14.5833 43.7504 14.5833C44.5239 14.5833 45.2658 14.276 45.8128 13.7291C46.3597 13.1821 46.667 12.4402 46.667 11.6667C46.667 10.8931 46.3597 10.1513 45.8128 9.60427C45.2658 9.05729 44.5239 8.75 43.7504 8.75Z" fill="#1A2751"/>
<path d="M20.4167 55.4162C18.8696 55.4162 17.3858 54.8017 16.2919 53.7077C15.1979 52.6137 14.5833 51.13 14.5833 49.5829C14.5833 48.8094 14.276 48.0675 13.7291 47.5205C13.1821 46.9735 12.4402 46.6663 11.6667 46.6663C10.8931 46.6663 10.1513 46.9735 9.60427 47.5205C9.05729 48.0675 8.75 48.8094 8.75 49.5829C8.75 51.13 8.13542 52.6137 7.04146 53.7077C5.94749 54.8017 4.46376 55.4162 2.91667 55.4162C2.14312 55.4162 1.40125 55.7235 0.854272 56.2705C0.307291 56.8175 0 57.5594 0 58.3329C0 59.1065 0.307291 59.8483 0.854272 60.3953C1.40125 60.9423 2.14312 61.2496 2.91667 61.2496C4.46376 61.2496 5.94749 61.8641 7.04146 62.9581C8.13542 64.0521 8.75 65.5358 8.75 67.0829C8.75 67.8564 9.05729 68.5983 9.60427 69.1453C10.1513 69.6923 10.8931 69.9995 11.6667 69.9995C12.4402 69.9995 13.1821 69.6923 13.7291 69.1453C14.276 68.5983 14.5833 67.8564 14.5833 67.0829C14.5833 65.5358 15.1979 64.0521 16.2919 62.9581C17.3858 61.8641 18.8696 61.2496 20.4167 61.2496C21.1902 61.2496 21.9321 60.9423 22.4791 60.3953C23.026 59.8483 23.3333 59.1065 23.3333 58.3329C23.3333 57.5594 23.026 56.8175 22.4791 56.2705C21.9321 55.7235 21.1902 55.4162 20.4167 55.4162Z" fill="#1A2751"/>
<path d="M67.0829 55.4162C65.5358 55.4162 64.0521 54.8017 62.9581 53.7077C61.8641 52.6137 61.2496 51.13 61.2496 49.5829C61.2496 48.8094 60.9423 48.0675 60.3953 47.5205C59.8483 46.9735 59.1065 46.6663 58.3329 46.6663C57.5594 46.6663 56.8175 46.9735 56.2705 47.5205C55.7235 48.0675 55.4162 48.8094 55.4162 49.5829C55.4162 51.13 54.8017 52.6137 53.7077 53.7077C52.6137 54.8017 51.13 55.4162 49.5829 55.4162C48.8094 55.4162 48.0675 55.7235 47.5205 56.2705C46.9735 56.8175 46.6663 57.5594 46.6663 58.3329C46.6663 59.1065 46.9735 59.8483 47.5205 60.3953C48.0675 60.9423 48.8094 61.2496 49.5829 61.2496C51.13 61.2496 52.6137 61.8641 53.7077 62.9581C54.8017 64.0521 55.4162 65.5358 55.4162 67.0829C55.4162 67.8564 55.7235 68.5983 56.2705 69.1453C56.8175 69.6923 57.5594 69.9995 58.3329 69.9995C59.1065 69.9995 59.8483 69.6923 60.3953 69.1453C60.9423 68.5983 61.2496 67.8564 61.2496 67.0829C61.2496 65.5358 61.8641 64.0521 62.9581 62.9581C64.0521 61.8641 65.5358 61.2496 67.0829 61.2496C67.8564 61.2496 68.5983 60.9423 69.1453 60.3953C69.6923 59.8483 69.9995 59.1065 69.9995 58.3329C69.9995 57.5594 69.6923 56.8175 69.1453 56.2705C68.5983 55.7235 67.8564 55.4162 67.0829 55.4162Z" fill="#1A2751"/>
</g>
<defs>
<clipPath id="clip0_26_2822">
<rect width="70" height="70" fill="white"/>
</clipPath>
</defs>
</svg>
