<svg width="24" height="25" viewBox="0 0 24 25" fill="none" xmlns="http://www.w3.org/2000/svg">
<g clip-path="url(#clip0_313_810)">
<path d="M12 12.4999C13.1867 12.4999 14.3467 12.148 15.3334 11.4888C16.3201 10.8295 17.0892 9.8924 17.5433 8.79604C17.9974 7.69969 18.1162 6.49329 17.8847 5.3294C17.6532 4.16551 17.0818 3.09642 16.2426 2.2573C15.4035 1.41819 14.3344 0.846741 13.1705 0.61523C12.0067 0.383719 10.8003 0.502539 9.7039 0.956664C8.60754 1.41079 7.67047 2.17983 7.01118 3.16652C6.35189 4.15321 6 5.31325 6 6.49994C6.00159 8.09075 6.63424 9.61595 7.75911 10.7408C8.88399 11.8657 10.4092 12.4984 12 12.4999ZM12 2.49994C12.7911 2.49994 13.5645 2.73454 14.2223 3.17406C14.8801 3.61359 15.3928 4.2383 15.6955 4.96921C15.9983 5.70011 16.0775 6.50438 15.9231 7.2803C15.7688 8.05623 15.3878 8.76896 14.8284 9.32837C14.269 9.88778 13.5563 10.2687 12.7804 10.4231C12.0044 10.5774 11.2002 10.4982 10.4693 10.1955C9.73836 9.89271 9.11365 9.38002 8.67412 8.72222C8.2346 8.06443 8 7.29107 8 6.49994C8 5.43908 8.42143 4.42166 9.17157 3.67151C9.92172 2.92137 10.9391 2.49994 12 2.49994Z" fill="#1A2751"/>
<path d="M12 14.5006C9.61386 14.5033 7.32622 15.4523 5.63896 17.1396C3.95171 18.8268 3.00265 21.1145 3 23.5006C3 23.7658 3.10536 24.0202 3.29289 24.2077C3.48043 24.3953 3.73478 24.5006 4 24.5006C4.26522 24.5006 4.51957 24.3953 4.70711 24.2077C4.89464 24.0202 5 23.7658 5 23.5006C5 21.6441 5.7375 19.8636 7.05025 18.5509C8.36301 17.2381 10.1435 16.5006 12 16.5006C13.8565 16.5006 15.637 17.2381 16.9497 18.5509C18.2625 19.8636 19 21.6441 19 23.5006C19 23.7658 19.1054 24.0202 19.2929 24.2077C19.4804 24.3953 19.7348 24.5006 20 24.5006C20.2652 24.5006 20.5196 24.3953 20.7071 24.2077C20.8946 24.0202 21 23.7658 21 23.5006C20.9974 21.1145 20.0483 18.8268 18.361 17.1396C16.6738 15.4523 14.3861 14.5033 12 14.5006Z" fill="#1A2751"/>
</g>
<defs>
<clipPath id="clip0_313_810">
<rect width="24" height="24" fill="white" transform="translate(0 0.5)"/>
</clipPath>
</defs>
</svg>
