<svg width="25" height="25" viewBox="0 0 25 25" fill="none" xmlns="http://www.w3.org/2000/svg">
<g clip-path="url(#clip0_313_801)">
<path d="M24.3735 22.7937L18.4045 16.8247C20.0312 14.8353 20.8309 12.2968 20.6384 9.73426C20.4458 7.17173 19.2757 4.78123 17.3701 3.05722C15.4645 1.33321 12.9691 0.40759 10.4002 0.471822C7.83122 0.536053 5.38523 1.58522 3.56814 3.40231C1.75105 5.2194 0.701886 7.66539 0.637654 10.2343C0.573422 12.8033 1.49904 15.2987 3.22305 17.2043C4.94706 19.1099 7.33756 20.28 9.90009 20.4725C12.4626 20.6651 15.0011 19.8653 16.9905 18.2387L22.9595 24.2077C23.1481 24.3899 23.4007 24.4907 23.6629 24.4884C23.9251 24.4861 24.1759 24.3809 24.3614 24.1955C24.5468 24.0101 24.6519 23.7593 24.6542 23.4971C24.6565 23.2349 24.5557 22.9823 24.3735 22.7937ZM10.6665 18.5007C9.08428 18.5007 7.53756 18.0315 6.22197 17.1525C4.90637 16.2734 3.88099 15.024 3.27549 13.5622C2.66999 12.1004 2.51157 10.4918 2.82025 8.93998C3.12893 7.38813 3.89086 5.96266 5.00968 4.84384C6.1285 3.72502 7.55396 2.9631 9.10581 2.65442C10.6577 2.34573 12.2662 2.50416 13.728 3.10966C15.1898 3.71516 16.4392 4.74054 17.3183 6.05614C18.1973 7.37173 18.6665 8.91845 18.6665 10.5007C18.6642 12.6217 17.8205 14.6551 16.3208 16.1549C14.821 17.6547 12.7875 18.4983 10.6665 18.5007Z" fill="#1A2751" fill-opacity="0.4"/>
</g>
<defs>
<clipPath id="clip0_313_801">
<rect width="24" height="24" fill="white" transform="translate(0.666748 0.5)"/>
</clipPath>
</defs>
</svg>
