<?xml version="1.0" encoding="utf-8"?>
<!-- Generator: Adobe Illustrator 28.2.0, SVG Export Plug-In . SVG Version: 6.00 Build 0)  -->
<svg version="1.1" xmlns="http://www.w3.org/2000/svg" xmlns:xlink="http://www.w3.org/1999/xlink" x="0px" y="0px"
	 viewBox="0 0 1024 512" style="enable-background:new 0 0 1024 512;" xml:space="preserve">
<style type="text/css">
	.st0{display:none;}
	.st1{display:inline;}
	.st2{display:inline;fill:none;}
	.st3{fill:#777777;}
</style>
<g id="Siders" class="st0">
	<g class="st1">
		<path d="M407.84,218.68c0,3.92-1.57,7.2-4.69,9.86c-3.13,2.65-6.86,3.98-11.2,3.98c-5.62,0-10.9-1.59-15.83-4.76v-1.89
			c4.61,2.96,9.89,4.44,15.83,4.44c3.24,0,6.04-1.03,8.39-3.1c2.35-2.07,3.53-4.58,3.53-7.54c0-4.57-4.23-8.05-12.68-10.44
			c-9.69-2.74-14.53-6.81-14.53-12.2c0-3.48,1.52-6.35,4.56-8.61c3.04-2.26,6.61-3.39,10.72-3.39c5.07,0,9.71,1.59,13.91,4.76v1.89
			c-4.02-2.96-8.66-4.44-13.91-4.44c-3.06,0-5.71,0.83-7.95,2.48c-2.24,1.65-3.36,3.76-3.36,6.33c0,1,0.26,1.93,0.79,2.77
			c0.52,0.85,1.11,1.52,1.75,2.02c0.64,0.5,1.62,1.03,2.95,1.6c1.32,0.57,2.35,0.96,3.08,1.17c0.73,0.22,1.9,0.57,3.49,1.04
			c4.34,1.22,7.95,3.01,10.83,5.38C406.4,212.4,407.84,215.28,407.84,218.68z"/>
		<path d="M421.82,231.6h-4.11v-45.69h4.11V231.6z"/>
		<path d="M464.58,191.82c3.33,4.29,5,9.93,5,16.94c0,7.01-1.67,12.65-5,16.94c-3.34,4.29-8.15,6.43-14.46,6.43
			c-3.75,0-7.74-0.17-11.99-0.52h-3.97v-45.69h3.97c4.25-0.35,8.25-0.52,11.99-0.52C456.42,185.39,461.24,187.54,464.58,191.82z
			 M463,218.91c1-3.11,1.51-6.49,1.51-10.15c0-3.65-0.5-7.04-1.51-10.15c-1.01-3.11-2.63-5.72-4.87-7.83
			c-2.24-2.11-4.91-3.17-8.02-3.17c-3.75,0-7.7,0.17-11.86,0.52v41.25c4.16,0.35,8.11,0.52,11.86,0.52c3.11,0,5.78-1.05,8.02-3.17
			C460.37,224.63,462,222.02,463,218.91z"/>
		<path d="M509.6,231.6h-30.15v-45.69h28.71v2.22h-24.6v19.51h20.01v2.22h-20.01v19.51h26.04V231.6z"/>
		<path d="M551.95,231.6h-4.8l-13.23-20.82c-3.56,0-7.22-0.3-10.96-0.91v21.73h-4.11v-45.69h3.97c3.93-0.35,7.63-0.52,11.1-0.52
			c4.98,0,8.99,1.09,12.03,3.26c3.04,2.18,4.56,5.31,4.56,9.4c0,3.44-1.07,6.2-3.22,8.29c-2.15,2.09-5.07,3.44-8.77,4.05
			L551.95,231.6z M542.05,205.49c2.26-2.04,3.39-4.52,3.39-7.44c0-2.91-1.13-5.38-3.39-7.41c-2.26-2.02-4.97-3.03-8.12-3.03
			c-3.43,0-7.08,0.17-10.96,0.52v19.51c3.75,0.61,7.4,0.91,10.96,0.91C537.08,208.56,539.79,207.54,542.05,205.49z"/>
		<path d="M562.85,231.6h-4.11v-45.69h4.11V231.6z"/>
		<path d="M604.44,218.68c0,3.92-1.57,7.2-4.69,9.86c-3.13,2.65-6.86,3.98-11.2,3.98c-5.62,0-10.9-1.59-15.83-4.76v-1.89
			c4.61,2.96,9.89,4.44,15.83,4.44c3.24,0,6.04-1.03,8.39-3.1c2.35-2.07,3.53-4.58,3.53-7.54c0-4.57-4.23-8.05-12.68-10.44
			c-9.69-2.74-14.53-6.81-14.53-12.2c0-3.48,1.52-6.35,4.56-8.61c3.04-2.26,6.61-3.39,10.72-3.39c5.07,0,9.71,1.59,13.91,4.76v1.89
			c-4.02-2.96-8.66-4.44-13.91-4.44c-3.06,0-5.71,0.83-7.95,2.48c-2.24,1.65-3.36,3.76-3.36,6.33c0,1,0.26,1.93,0.79,2.77
			c0.52,0.85,1.11,1.52,1.75,2.02c0.64,0.5,1.62,1.03,2.95,1.6c1.32,0.57,2.35,0.96,3.08,1.17c0.73,0.22,1.9,0.57,3.49,1.04
			c4.34,1.22,7.95,3.01,10.83,5.38C603.01,212.4,604.44,215.28,604.44,218.68z"/>
	</g>
</g>
<g id="Professional" class="st0">
	<rect x="391.97" y="253.04" class="st2" width="221.45" height="24.22"/>
</g>
<g id="Слой_5" class="st0">
	<g class="st1">
		<line class="st3" x1="286.01" y1="155.21" x2="206.48" y2="339.48"/>
		<path class="st3" d="M286.01,155.21c-24.51,61.96-51.24,123.93-79.53,184.27C230.98,277.51,257.73,215.56,286.01,155.21
			L286.01,155.21z"/>
	</g>
	<g class="st1">
		<line class="st3" x1="151.48" y1="286.48" x2="344.66" y2="199.76"/>
		<path class="st3" d="M151.48,286.48c63.27-30.65,128.22-59.82,193.18-86.72C281.39,230.42,216.43,259.57,151.48,286.48
			L151.48,286.48z"/>
	</g>
	<g class="st1">
		<line class="st3" x1="214.14" y1="165.43" x2="282" y2="320.8"/>
		<path class="st3" d="M214.14,165.43c24.4,50.74,47.24,102.99,67.86,155.37C257.59,270.07,234.78,217.81,214.14,165.43
			L214.14,165.43z"/>
	</g>
	<g class="st1">
		<line class="st3" x1="175.41" y1="215.35" x2="333.88" y2="275.63"/>
		<path class="st3" d="M175.41,215.35c53.31,18.09,106.62,38.35,158.47,60.28C280.56,257.56,227.27,237.27,175.41,215.35
			L175.41,215.35z"/>
	</g>
</g>
<g id="Слой_4" class="st0">
	<g class="st1">
		<line x1="247.51" y1="23.71" x2="247.51" y2="475.27"/>
		<path d="M247.51,23.71c3.38,145.05,3.3,292.38,0.38,437.44c0,0-0.38,14.11-0.38,14.11l-0.38-14.11
			C244.22,316.09,244.14,168.77,247.51,23.71L247.51,23.71z"/>
	</g>
	<g class="st1">
		<line x1="28.67" y1="242.78" x2="639.33" y2="242.78"/>
		<path d="M28.67,242.78c196.18-3.38,395.39-3.3,591.58-0.38c0,0,19.08,0.38,19.08,0.38l-19.08,0.38
			C424.05,246.07,224.85,246.15,28.67,242.78L28.67,242.78z"/>
	</g>
	<g class="st1">
		<line x1="139.83" y1="137.67" x2="310.83" y2="304.8"/>
		<path d="M139.83,137.67c58.66,53.5,116.18,109.69,171,167.12C252.16,251.31,194.66,195.09,139.83,137.67L139.83,137.67z"/>
	</g>
	<g class="st1">
		<line x1="334.52" y1="156.62" x2="139.83" y2="351.31"/>
		<path d="M334.52,156.62c-60.62,64.44-124.21,127.93-188.39,188.82c0,0-6.3,5.87-6.3,5.87l5.87-6.3
			C206.59,280.83,270.08,217.24,334.52,156.62L334.52,156.62z"/>
	</g>
	<g class="st1">
		<path d="M348.85,242.78c0.41-40.02-25.55-78.43-62.91-92.77c-65.21-26.18-137.01,22.63-136.76,92.77
			c-0.12,70.25,71.45,118.87,136.76,92.76C323.29,321.2,349.26,282.81,348.85,242.78L348.85,242.78z M348.85,242.78
			c-0.67,91.14-109.09,136.79-174.82,73.48c-40.96-39.54-40.95-107.42,0.01-146.96C239.78,106.01,348.17,151.65,348.85,242.78
			L348.85,242.78z"/>
	</g>
</g>
<g id="Слой_6" class="st0">
	<g class="st1">
		<g>
			<path d="M399.14,217.79c0,3.92-1.57,7.2-4.69,9.86c-3.13,2.65-6.86,3.98-11.2,3.98c-5.62,0-10.9-1.59-15.83-4.76v-1.89
				c4.61,2.96,9.89,4.44,15.83,4.44c3.24,0,6.04-1.03,8.39-3.1c2.35-2.07,3.53-4.58,3.53-7.54c0-4.57-4.23-8.05-12.68-10.44
				c-9.69-2.74-14.53-6.81-14.53-12.2c0-3.48,1.52-6.35,4.56-8.61c3.04-2.26,6.61-3.39,10.72-3.39c5.07,0,9.71,1.59,13.91,4.76v1.89
				c-4.02-2.96-8.66-4.44-13.91-4.44c-3.06,0-5.71,0.83-7.95,2.48c-2.24,1.65-3.36,3.76-3.36,6.33c0,1,0.26,1.93,0.79,2.77
				c0.52,0.85,1.11,1.52,1.75,2.02c0.64,0.5,1.62,1.03,2.95,1.6c1.32,0.57,2.35,0.96,3.08,1.17c0.73,0.22,1.9,0.57,3.49,1.04
				c4.34,1.22,7.95,3.01,10.83,5.38C397.7,211.51,399.14,214.39,399.14,217.79z"/>
			<path d="M413.12,230.71h-4.11v-45.69h4.11V230.71z"/>
			<path d="M455.88,190.93c3.33,4.29,5,9.93,5,16.94c0,7.01-1.67,12.65-5,16.94c-3.34,4.29-8.15,6.43-14.46,6.43
				c-3.75,0-7.74-0.17-11.99-0.52h-3.97v-45.69h3.97c4.25-0.35,8.25-0.52,11.99-0.52C447.73,184.5,452.55,186.65,455.88,190.93z
				 M454.31,218.02c1-3.11,1.51-6.49,1.51-10.15c0-3.65-0.5-7.04-1.51-10.15c-1.01-3.11-2.63-5.72-4.87-7.83
				c-2.24-2.11-4.91-3.17-8.02-3.17c-3.75,0-7.7,0.17-11.86,0.52v41.25c4.16,0.35,8.11,0.52,11.86,0.52c3.11,0,5.78-1.05,8.02-3.17
				C451.68,223.74,453.3,221.13,454.31,218.02z"/>
			<path d="M500.91,230.71h-30.15v-45.69h28.71v2.22h-24.6v19.51h20.01v2.22h-20.01v19.51h26.04V230.71z"/>
			<path d="M543.26,230.71h-4.8l-13.23-20.82c-3.56,0-7.22-0.3-10.96-0.91v21.73h-4.11v-45.69h3.97c3.93-0.35,7.63-0.52,11.1-0.52
				c4.98,0,8.99,1.09,12.03,3.26c3.04,2.18,4.56,5.31,4.56,9.4c0,3.44-1.07,6.2-3.22,8.29c-2.15,2.09-5.07,3.44-8.77,4.05
				L543.26,230.71z M533.36,204.6c2.26-2.04,3.39-4.52,3.39-7.44c0-2.91-1.13-5.38-3.39-7.41c-2.26-2.02-4.97-3.03-8.12-3.03
				c-3.43,0-7.08,0.17-10.96,0.52v19.51c3.75,0.61,7.4,0.91,10.96,0.91C528.39,207.67,531.09,206.65,533.36,204.6z"/>
			<path d="M554.15,230.71h-4.11v-45.69h4.11V230.71z"/>
			<path d="M595.75,217.79c0,3.92-1.57,7.2-4.69,9.86c-3.13,2.65-6.86,3.98-11.2,3.98c-5.62,0-10.9-1.59-15.83-4.76v-1.89
				c4.61,2.96,9.89,4.44,15.83,4.44c3.24,0,6.04-1.03,8.39-3.1c2.35-2.07,3.53-4.58,3.53-7.54c0-4.57-4.23-8.05-12.68-10.44
				c-9.69-2.74-14.53-6.81-14.53-12.2c0-3.48,1.52-6.35,4.56-8.61c3.04-2.26,6.61-3.39,10.72-3.39c5.07,0,9.71,1.59,13.91,4.76v1.89
				c-4.02-2.96-8.66-4.44-13.91-4.44c-3.06,0-5.71,0.83-7.95,2.48c-2.24,1.65-3.36,3.76-3.36,6.33c0,1,0.26,1.93,0.79,2.77
				c0.52,0.85,1.11,1.52,1.75,2.02c0.64,0.5,1.62,1.03,2.95,1.6c1.32,0.57,2.35,0.96,3.08,1.17c0.73,0.22,1.9,0.57,3.49,1.04
				c4.34,1.22,7.95,3.01,10.83,5.38C594.31,211.51,595.75,214.39,595.75,217.79z"/>
		</g>
		<g>
			<line class="st3" x1="277.31" y1="154.33" x2="197.78" y2="338.59"/>
			<path class="st3" d="M277.31,154.33c-24.51,61.96-51.24,123.93-79.53,184.27C222.28,276.62,249.04,214.67,277.31,154.33
				L277.31,154.33z"/>
		</g>
		<g>
			<line class="st3" x1="142.78" y1="285.59" x2="335.96" y2="198.87"/>
			<path class="st3" d="M142.78,285.59c63.27-30.65,128.22-59.82,193.18-86.72C272.7,229.53,207.74,258.68,142.78,285.59
				L142.78,285.59z"/>
		</g>
		<g>
			<line class="st3" x1="205.44" y1="164.54" x2="273.31" y2="319.92"/>
			<path class="st3" d="M205.44,164.54c24.4,50.74,47.24,102.99,67.86,155.37C248.89,269.18,226.08,216.92,205.44,164.54
				L205.44,164.54z"/>
		</g>
		<g>
			<line class="st3" x1="166.72" y1="214.46" x2="325.19" y2="274.75"/>
			<path class="st3" d="M166.72,214.46c53.31,18.09,106.62,38.35,158.47,60.28C271.87,256.67,218.58,236.38,166.72,214.46
				L166.72,214.46z"/>
		</g>
		<g>
			<line x1="238.82" y1="22.83" x2="238.82" y2="474.38"/>
			<path d="M238.82,22.83c3.38,145.05,3.3,292.38,0.38,437.44c0,0-0.38,14.11-0.38,14.11l-0.38-14.11
				C235.52,315.21,235.44,167.88,238.82,22.83L238.82,22.83z"/>
		</g>
		<g>
			<line x1="19.97" y1="241.89" x2="630.64" y2="241.89"/>
			<path d="M19.97,241.89c196.18-3.38,395.39-3.3,591.58-0.38c0,0,19.08,0.38,19.08,0.38l-19.08,0.38
				C415.36,245.18,216.16,245.27,19.97,241.89L19.97,241.89z"/>
		</g>
		<g>
			<line x1="131.14" y1="136.78" x2="302.14" y2="303.91"/>
			<path d="M131.14,136.78c58.66,53.5,116.18,109.69,171,167.12C243.46,250.42,185.97,194.2,131.14,136.78L131.14,136.78z"/>
		</g>
		<g>
			<line x1="325.83" y1="155.73" x2="131.14" y2="350.43"/>
			<path d="M325.83,155.73c-60.62,64.44-124.21,127.93-188.39,188.82c0,0-6.3,5.87-6.3,5.87l5.87-6.3
				C197.89,279.94,261.39,216.35,325.83,155.73L325.83,155.73z"/>
		</g>
		<g>
			<path d="M340.15,241.89c0.41-40.02-25.55-78.43-62.91-92.77c-65.21-26.18-137.01,22.63-136.76,92.77
				c-0.12,70.25,71.45,118.87,136.76,92.76C314.59,320.31,340.56,281.92,340.15,241.89L340.15,241.89z M340.15,241.89
				c-0.67,91.14-109.09,136.79-174.82,73.48c-40.96-39.54-40.95-107.42,0.01-146.96C231.09,105.12,339.48,150.76,340.15,241.89
				L340.15,241.89z"/>
		</g>
	</g>
</g>
<g id="Слой_9" class="st0">
</g>
<g id="Слой_7">
	<g>
		<path d="M436.33,174.93c0,8.11-3.09,14.91-9.26,20.41c-6.17,5.5-13.54,8.24-22.1,8.24c-11.08,0-21.49-3.29-31.22-9.87v-3.92
			c9.1,6.13,19.51,9.19,31.22,9.19c6.4,0,11.91-2.14,16.56-6.42c4.64-4.28,6.96-9.48,6.96-15.61c0-9.46-8.33-16.67-25-21.62
			c-19.1-5.68-28.65-14.1-28.65-25.27c0-7.21,2.99-13.16,8.99-17.84c5.99-4.68,13.04-7.03,21.15-7.03c10,0,19.14,3.29,27.44,9.87
			v3.92c-7.93-6.13-17.08-9.19-27.44-9.19c-6.04,0-11.26,1.71-15.68,5.14c-4.42,3.42-6.62,7.79-6.62,13.11
			c0,2.07,0.52,3.99,1.55,5.74c1.03,1.76,2.18,3.16,3.45,4.19c1.26,1.04,3.2,2.14,5.81,3.31c2.61,1.17,4.64,1.98,6.08,2.43
			c1.44,0.45,3.74,1.17,6.89,2.16c8.56,2.52,15.68,6.24,21.35,11.15C433.5,161.93,436.33,167.9,436.33,174.93z"/>
		<path d="M463.91,201.68h-8.11v-94.61h8.11V201.68z"/>
		<path d="M548.24,119.31c6.58,8.88,9.87,20.57,9.87,35.07c0,14.51-3.29,26.2-9.87,35.07c-6.58,8.88-16.08,13.31-28.52,13.31
			c-7.39,0-15.27-0.36-23.65-1.08h-7.84v-94.61h7.84c8.38-0.72,16.26-1.08,23.65-1.08C532.16,106,541.66,110.44,548.24,119.31z
			 M545.13,175.4c1.98-6.44,2.97-13.45,2.97-21.02c0-7.57-0.99-14.57-2.97-21.02c-1.98-6.44-5.18-11.85-9.6-16.22
			c-4.42-4.37-9.69-6.56-15.81-6.56c-7.39,0-15.18,0.36-23.38,1.08v85.42c8.2,0.72,15.99,1.08,23.38,1.08
			c6.13,0,11.4-2.18,15.81-6.55C539.95,187.25,543.15,181.84,545.13,175.4z"/>
		<path d="M637.03,201.68h-59.47v-94.61h56.63v4.6h-48.52v40.41h39.47v4.59h-39.47v40.41h51.36V201.68z"/>
		<path d="M720.56,201.68h-9.46l-26.08-43.11c-7.03,0-14.24-0.63-21.62-1.89v45.01h-8.11v-94.61h7.84
			c7.75-0.72,15.05-1.08,21.89-1.08c9.82,0,17.73,2.25,23.72,6.76c5.99,4.51,8.99,10.99,8.99,19.46c0,7.12-2.12,12.84-6.35,17.17
			c-4.24,4.32-10,7.12-17.3,8.38L720.56,201.68z M701.03,147.63c4.46-4.23,6.69-9.37,6.69-15.41c0-6.04-2.23-11.15-6.69-15.34
			c-4.46-4.19-9.8-6.29-16.02-6.29c-6.76,0-13.97,0.36-21.62,1.08v40.41c7.39,1.26,14.6,1.89,21.62,1.89
			C691.23,153.98,696.57,151.86,701.03,147.63z"/>
		<path d="M742.05,201.68h-8.11v-94.61h8.11V201.68z"/>
		<path d="M824.08,174.93c0,8.11-3.09,14.91-9.26,20.41c-6.17,5.5-13.54,8.24-22.1,8.24c-11.08,0-21.49-3.29-31.22-9.87v-3.92
			c9.1,6.13,19.51,9.19,31.22,9.19c6.4,0,11.91-2.14,16.56-6.42c4.64-4.28,6.96-9.48,6.96-15.61c0-9.46-8.34-16.67-25-21.62
			c-19.1-5.68-28.65-14.1-28.65-25.27c0-7.21,3-13.16,8.99-17.84c5.99-4.68,13.04-7.03,21.15-7.03c10,0,19.15,3.29,27.44,9.87v3.92
			c-7.93-6.13-17.08-9.19-27.44-9.19c-6.04,0-11.26,1.71-15.68,5.14c-4.42,3.42-6.62,7.79-6.62,13.11c0,2.07,0.52,3.99,1.55,5.74
			c1.04,1.76,2.18,3.16,3.45,4.19c1.26,1.04,3.2,2.14,5.81,3.31s4.64,1.98,6.08,2.43c1.44,0.45,3.74,1.17,6.89,2.16
			c8.56,2.52,15.68,6.24,21.35,11.15C821.25,161.93,824.08,167.9,824.08,174.93z"/>
	</g>
	<g>
		<path d="M382.82,236.82c5.5,0,8.59,2.08,8.59,6.44c0,4.23-2.86,6.62-8.59,6.62h-3.72v9.02H377v-22.08H382.82z M382.82,238.75
			h-3.72v9.21h3.72c3.24,0,6.39-0.57,6.39-4.7C389.21,239.16,385.94,238.75,382.82,238.75z"/>
		<path d="M411.04,258.91l-4.61-9.08c-0.54,0.03-1.11,0.06-1.69,0.06h-3.72v9.02h-2.13v-22.08h5.85c5.47,0,8.56,2.08,8.56,6.44
			c0,3.15-1.59,5.3-4.8,6.18l4.8,9.46H411.04z M404.74,247.96c3.21,0,6.36-0.53,6.36-4.7c0-4.1-3.24-4.51-6.36-4.51h-3.72v9.21
			H404.74z"/>
		<path d="M438.49,247.9c0,7.89-3.91,11.42-9,11.42c-5.09,0-9.03-3.53-9.03-11.42s3.94-11.42,9.03-11.42
			C434.58,236.48,438.49,240.01,438.49,247.9z M436.24,247.9c0-6.97-3.24-9.49-6.74-9.49c-3.5,0-6.74,2.52-6.74,9.49
			c0,6.97,3.24,9.5,6.74,9.5C432.99,257.39,436.24,254.87,436.24,247.9z"/>
		<path d="M459.27,236.82v1.93H448.3v7.82h9.32v1.92h-9.32v10.41h-2v-22.08H459.27z"/>
		<path d="M466.44,258.91v-22.08h12.97v1.93h-10.97v7.79h9.35v1.93h-9.35v8.52h11.1v1.92H466.44z"/>
		<path d="M499.2,239.25c0,0-2.58-0.85-5.5-0.85c-3.08,0-5.69,0.88-5.69,3.88c0,2.65,2.61,3.37,5.37,4.26
			c4.52,1.48,7.09,3,7.09,6.85c0,3.79-2.99,5.93-7.31,5.93c-5.31,0-7.73-2.05-7.73-2.05l0.63-1.32c0,0,3.02,1.45,6.23,1.45
			c4.71,0,5.95-1.93,5.95-4.2c0-2.3-1.91-3.34-5.44-4.51c-3.5-1.17-7-2.4-7-6.28c0-3.85,2.99-5.93,7.22-5.93
			c3.69,0,6.61,1.42,6.61,1.42L499.2,239.25z"/>
		<path d="M519.5,239.25c0,0-2.58-0.85-5.5-0.85c-3.09,0-5.69,0.88-5.69,3.88c0,2.65,2.61,3.37,5.37,4.26
			c4.52,1.48,7.09,3,7.09,6.85c0,3.79-2.99,5.93-7.31,5.93c-5.31,0-7.73-2.05-7.73-2.05l0.64-1.32c0,0,3.02,1.45,6.23,1.45
			c4.71,0,5.95-1.93,5.95-4.2c0-2.3-1.91-3.34-5.44-4.51c-3.5-1.17-6.99-2.4-6.99-6.28c0-3.85,2.99-5.93,7.22-5.93
			c3.69,0,6.61,1.42,6.61,1.42L519.5,239.25z"/>
		<path d="M530.26,258.91h-2v-22.08h2V258.91z"/>
		<path d="M556.09,247.9c0,7.89-3.91,11.42-9,11.42s-9.03-3.53-9.03-11.42s3.94-11.42,9.03-11.42S556.09,240.01,556.09,247.9z
			 M553.83,247.9c0-6.97-3.24-9.49-6.74-9.49s-6.74,2.52-6.74,9.49c0,6.97,3.24,9.5,6.74,9.5S553.83,254.87,553.83,247.9z"/>
		<path d="M577.79,258.91l-11.89-18.86v18.86h-2v-22.08h2.26l11.89,18.87v-18.87h2v22.08H577.79z"/>
		<path d="M599.56,252.22h-8.17l-2.13,6.69h-2.04l7.06-22.08h2.04l7.73,22.08h-2.16L599.56,252.22z M598.92,250.42l-3.62-10.41
			l-3.34,10.41H598.92z"/>
		<path d="M611.21,258.91v-22.08h2v20.16h11.1v1.92H611.21z"/>
	</g>
</g>
<g id="Слой_8">
	<g>
		<line class="st3" x1="288.31" y1="154.38" x2="223.37" y2="304.86"/>
		<path class="st3" d="M288.31,154.38c-19.67,50.74-41.5,101.36-64.94,150.48C243.02,254.11,264.88,203.5,288.31,154.38
			L288.31,154.38z"/>
	</g>
	<g>
		<line class="st3" x1="178.45" y1="261.58" x2="336.21" y2="190.76"/>
		<path class="st3" d="M178.45,261.58c51.51-25.37,104.56-49.2,157.76-70.82C284.7,216.14,231.64,239.94,178.45,261.58
			L178.45,261.58z"/>
	</g>
	<g>
		<line class="st3" x1="229.62" y1="162.73" x2="285.04" y2="289.61"/>
		<path class="st3" d="M229.62,162.73c20.27,41.27,38.93,83.96,55.42,126.88C264.76,248.34,246.13,205.64,229.62,162.73
			L229.62,162.73z"/>
	</g>
	<g>
		<line class="st3" x1="198" y1="203.49" x2="327.41" y2="252.72"/>
		<path class="st3" d="M198,203.49c43.66,14.42,87.21,30.97,129.41,49.23C283.74,238.32,240.2,221.74,198,203.49L198,203.49z"/>
	</g>
	<g>
		<line x1="256.88" y1="47" x2="256.88" y2="415.75"/>
		<path d="M256.88,47c3.42,122.39,3.45,246.37,0,368.75C253.43,293.36,253.46,169.38,256.88,47L256.88,47z"/>
	</g>
	<g>
		<line x1="78.16" y1="225.89" x2="576.85" y2="225.89"/>
		<path d="M78.16,225.89c160.2-3.38,322.9-3.3,483.11-0.38c0,0,15.58,0.38,15.58,0.38l-15.58,0.38
			C401.05,229.18,238.36,229.27,78.16,225.89L78.16,225.89z"/>
	</g>
	<g>
		<line x1="168.94" y1="140.06" x2="308.58" y2="276.53"/>
		<path d="M168.94,140.06c48.24,43.33,95.24,89.23,139.64,136.48C260.33,233.23,213.36,187.29,168.94,140.06L168.94,140.06z"/>
	</g>
	<g>
		<line x1="327.93" y1="155.53" x2="168.94" y2="314.52"/>
		<path d="M327.93,155.53c-50.82,54.69-104.28,108.18-158.99,158.99C219.75,259.82,273.24,206.36,327.93,155.53L327.93,155.53z"/>
	</g>
	<g>
		<path d="M339.63,225.89c0.32-32.66-20.91-64.01-51.44-75.6c-53.04-21.12-111.28,18.64-111.07,75.6
			c-0.2,56.94,58.03,96.7,111.07,75.59C318.72,289.89,339.96,258.56,339.63,225.89L339.63,225.89z M339.63,225.89
			c-0.54,74.57-89.18,112.04-143.1,60.35c-33.73-32.43-33.72-88.26,0.01-120.68C250.48,113.88,339.09,151.33,339.63,225.89
			L339.63,225.89z"/>
	</g>
</g>
</svg>
